<svg xmlns="http://www.w3.org/2000/svg" width="40" height="40" viewBox="0 0 40 40">
    <g fill="none" fill-rule="evenodd">
        <g>
            <g fill="#000" fill-rule="nonzero">
                <g>
                    <path d="M26.75 25.625v1.5c0 .414-.336.75-.75.75H14c-.414 0-.75-.336-.75-.75v-1.5h13.5zM20 14.375c.284 0 .544.16.67.415l2.62 5.24 3.794-2.529c.255-.17.587-.168.84.005.253.173.375.483.308.782l-1.463 6.587H13.232l-1.464-6.587c-.067-.3.055-.609.308-.782.253-.173.585-.175.84-.005l3.793 2.529 2.62-5.24c.127-.254.387-.415.671-.415zm8.25 1.5c.414 0 .75.336.75.75s-.336.75-.75.75-.75-.336-.75-.75.336-.75.75-.75zm-16.5 0c.414 0 .75.336.75.75s-.336.75-.75.75-.75-.336-.75-.75.336-.75.75-.75zm8.25-3.75c.414 0 .75.336.75.75s-.336.75-.75.75-.75-.336-.75-.75.336-.75.75-.75z" transform="translate(-1076 -726) translate(1076 726)"/>
                </g>
            </g>
            <path stroke="#EDEDED" d="M132.5 720.5H1147.5V771.5H132.5z" transform="translate(-1076 -726)"/>
        </g>
    </g>
</svg>
